<?xml version="1.0" encoding="UTF-8"?>
<svg xmlns="http://www.w3.org/2000/svg" xmlns:xlink="http://www.w3.org/1999/xlink" width="1300px" height="370px" viewBox="0 0 1301 370" version="1.1">
<g id="surface1">
<path style=" stroke:none;fill-rule:evenodd;fill:rgb(100%,100%,100%);fill-opacity:1;" d="M 1.394531 334.355469 C 0.785156 334.683594 0 334.300781 0 333.679688 L 0 36.023438 C 0 35.386719 0.804688 35.003906 1.40625 35.355469 L 63.683594 82.6875 C 63.933594 82.824219 64.089844 83.078125 64.097656 83.363281 L 64.097656 288.449219 C 64.097656 288.726562 63.941406 288.976562 63.667969 289.121094 Z M 150.902344 369.484375 C 150.546875 370.308594 149.140625 370.085938 149.140625 369.199219 L 149.140625 30.40625 C 149.140625 29.546875 150.480469 29.296875 150.882812 30.074219 L 174.394531 76.359375 C 174.441406 76.460938 174.46875 76.570312 174.464844 76.683594 L 174.464844 314.339844 C 174.464844 314.4375 174.445312 314.535156 174.40625 314.625 Z M 225.4375 339.820312 L 195.785156 293.335938 C 195.707031 293.21875 195.664062 293.082031 195.664062 292.941406 L 195.664062 56.492188 C 195.664062 56.371094 195.699219 56.261719 195.75 56.152344 L 225.402344 0.460938 C 225.820312 -0.308594 227.140625 -0.0546875 227.140625 0.800781 L 227.140625 339.433594 C 227.140625 340.253906 225.890625 340.539062 225.4375 339.824219 Z M 85.085938 350.113281 C 84.523438 350.652344 83.5 350.3125 83.5 349.578125 L 83.5 21.230469 C 83.5 20.503906 84.523438 20.152344 85.085938 20.695312 L 129.609375 71.140625 C 129.761719 71.277344 129.847656 71.46875 129.847656 71.675781 L 129.847656 299.125 C 129.847656 299.324219 129.761719 299.515625 129.609375 299.660156 L 85.085938 350.105469 Z M 295.671875 333.265625 L 247.726562 288.488281 C 247.535156 288.347656 247.421875 288.128906 247.414062 287.894531 L 247.414062 83.496094 C 247.414062 83.261719 247.527344 83.046875 247.726562 82.894531 L 295.671875 38.359375 C 296.265625 37.910156 297.183594 38.28125 297.183594 38.96875 L 297.183594 332.65625 C 297.183594 333.34375 296.257812 333.707031 295.671875 333.25 Z M 384.738281 125.535156 L 411.988281 125.535156 C 412.617188 125.527344 413.199219 125.859375 413.507812 126.40625 L 448.671875 191.046875 C 449.300781 192.203125 451.082031 192.203125 451.710938 191.03125 L 486.546875 126.414062 C 486.855469 125.867188 487.4375 125.53125 488.066406 125.535156 L 515.144531 125.535156 C 516.082031 125.535156 516.847656 126.25 516.847656 127.121094 L 516.847656 235.15625 C 516.847656 236.039062 516.082031 236.742188 515.144531 236.742188 L 494.347656 236.742188 C 493.402344 236.742188 492.644531 236.039062 492.644531 235.15625 L 492.644531 168.390625 C 492.644531 166.710938 490.207031 166.183594 489.40625 167.683594 L 459.195312 224.582031 C 458.882812 225.136719 458.296875 225.476562 457.660156 225.46875 L 442.394531 225.46875 C 441.761719 225.476562 441.175781 225.136719 440.867188 224.582031 L 410.476562 167.648438 C 409.667969 166.148438 407.238281 166.683594 407.238281 168.363281 L 407.238281 235.148438 C 407.238281 236.035156 406.480469 236.734375 405.535156 236.734375 L 384.738281 236.734375 C 383.796875 236.734375 383.035156 236.035156 383.035156 235.148438 L 383.035156 127.121094 C 383.035156 126.242188 383.796875 125.527344 384.738281 125.527344 M 603.757812 187.015625 C 604.753906 187.015625 605.554688 186.210938 605.453125 185.285156 C 604.925781 180.460938 603.042969 176.542969 599.789062 173.511719 C 596.15625 170.121094 591.320312 168.421875 585.296875 168.421875 C 579.617188 168.421875 574.871094 170.09375 571.066406 173.425781 C 567.699219 176.378906 565.417969 180.269531 564.230469 185.085938 C 563.988281 186.070312 564.8125 187.015625 565.894531 187.015625 Z M 618.792969 162.382812 C 626.46875 170.332031 630.296875 181.398438 630.296875 195.589844 C 630.296875 197.308594 630.273438 198.761719 630.21875 199.953125 C 630.1875 200.8125 629.425781 201.472656 628.523438 201.472656 L 566.609375 201.472656 C 565.433594 201.472656 564.628906 202.546875 565.003906 203.585938 C 566.472656 207.816406 569.214844 211.488281 572.855469 214.097656 C 577.054688 217.117188 582.113281 218.625 588.027344 218.625 C 592.34375 218.625 596.484375 217.855469 600.46875 216.324219 C 603.953125 214.980469 607.183594 213.050781 610.023438 210.621094 C 610.714844 210.046875 611.722656 210.074219 612.382812 210.683594 L 623.871094 221.519531 C 624.179688 221.804688 624.359375 222.203125 624.359375 222.625 C 624.363281 223.046875 624.191406 223.449219 623.886719 223.738281 C 619.34375 228.128906 613.957031 231.550781 608.054688 233.800781 C 601.40625 236.398438 593.988281 237.691406 585.8125 237.691406 C 576.152344 237.691406 567.710938 235.886719 560.492188 232.292969 C 553.28125 228.691406 547.714844 223.605469 543.785156 217.042969 C 539.867188 210.46875 537.90625 202.90625 537.90625 194.316406 C 537.90625 185.632812 539.894531 177.984375 543.878906 171.363281 C 547.851562 164.75 553.421875 159.609375 560.585938 155.953125 C 567.738281 152.300781 575.921875 150.472656 585.125 150.472656 C 599.898438 150.472656 611.125 154.441406 618.792969 162.382812 Z M 687.707031 154.605469 C 692.363281 152.097656 697.726562 150.6875 703.800781 150.378906 C 704.777344 150.324219 705.605469 151.050781 705.605469 151.964844 L 705.605469 171.640625 C 705.605469 172.539062 704.804688 173.265625 703.839844 173.226562 C 703.066406 173.199219 702.292969 173.1875 701.515625 173.191406 C 693.445312 173.191406 687.054688 175.226562 682.339844 179.3125 C 677.621094 183.386719 675.265625 188.8125 675.265625 195.589844 L 675.265625 235.148438 C 675.265625 236.027344 674.5 236.734375 673.5625 236.734375 L 650.710938 236.734375 C 649.773438 236.734375 649.015625 236.027344 649.015625 235.148438 L 649.015625 152.863281 C 649.015625 151.984375 649.773438 151.277344 650.71875 151.277344 L 673.5625 151.277344 C 674.5 151.277344 675.265625 151.984375 675.265625 152.863281 L 675.265625 161.378906 C 675.265625 162.898438 677.324219 163.546875 678.324219 162.335938 C 680.964844 159.125 684.09375 156.554688 687.699219 154.605469 Z M 763.867188 171.285156 C 757.273438 171.285156 751.90625 173.378906 747.75 177.558594 C 743.605469 181.75 741.53125 187.28125 741.53125 194.164062 C 741.53125 201.046875 743.578125 206.632812 747.671875 210.917969 C 751.761719 215.214844 756.984375 217.355469 763.351562 217.355469 C 772.277344 217.355469 779.066406 214.441406 783.722656 208.601562 C 784.296875 207.910156 785.289062 207.753906 786.046875 208.230469 L 801.371094 217.921875 C 801.734375 218.144531 801.988281 218.503906 802.078125 218.917969 C 802.164062 219.335938 802.078125 219.769531 801.832031 220.117188 C 798.042969 225.515625 792.917969 229.730469 786.445312 232.769531 C 779.464844 236.054688 771.308594 237.691406 761.988281 237.691406 C 752.785156 237.691406 744.660156 235.886719 737.613281 232.292969 C 730.5625 228.6875 725.085938 223.605469 721.164062 217.039062 C 717.242188 210.476562 715.285156 202.898438 715.285156 194.324219 C 715.285156 185.640625 717.242188 177.984375 721.164062 171.363281 C 725.085938 164.742188 730.59375 159.601562 737.699219 155.953125 C 744.800781 152.300781 753.007812 150.472656 762.332031 150.472656 C 771.078125 150.472656 778.863281 152.035156 785.679688 155.164062 C 791.964844 158.042969 797.089844 162.019531 801.066406 167.109375 C 801.335938 167.445312 801.445312 167.882812 801.375 168.308594 C 801.300781 168.738281 801.050781 169.113281 800.683594 169.339844 L 785.59375 179.484375 C 784.878906 179.960938 783.929688 179.863281 783.328125 179.25 C 778.234375 173.941406 771.75 171.285156 763.867188 171.285156 Z M 868.960938 216.722656 C 872.871094 214.324219 875.25 211.308594 876.082031 207.683594 C 876.109375 207.566406 876.121094 207.445312 876.121094 207.324219 L 876.121094 201.472656 C 876.121094 200.59375 875.355469 199.886719 874.417969 199.886719 L 855.496094 199.886719 C 850.378906 199.886719 846.601562 200.652344 844.15625 202.183594 C 841.714844 203.726562 840.5 206.183594 840.5 209.570312 C 840.5 212.855469 841.773438 215.480469 844.328125 217.433594 C 846.886719 219.398438 850.378906 220.375 854.816406 220.375 C 860.269531 220.375 864.988281 219.160156 868.960938 216.722656 M 876.292969 235.15625 L 876.292969 230.792969 C 876.292969 229.417969 874.523438 228.671875 873.441406 229.605469 C 870.746094 231.910156 867.675781 233.730469 864.359375 234.988281 C 859.472656 236.898438 853.84375 237.851562 847.484375 237.851562 C 837.824219 237.851562 830.15625 235.394531 824.472656 230.464844 C 818.792969 225.535156 815.953125 219.097656 815.953125 211.15625 C 815.953125 203.109375 818.988281 196.839844 825.066406 192.332031 C 831.140625 187.835938 839.753906 185.527344 850.886719 185.421875 L 874.417969 185.421875 C 875.355469 185.421875 876.121094 184.714844 876.121094 183.835938 C 876.121094 179.277344 874.503906 175.761719 871.261719 173.265625 C 868.023438 170.78125 863.277344 169.539062 857.027344 169.539062 C 848.972656 169.539062 840.40625 171.757812 831.339844 176.210938 C 830.484375 176.640625 829.441406 176.304688 829 175.453125 L 822.25 161.566406 C 822.074219 161.183594 822.058594 160.746094 822.210938 160.351562 C 822.363281 159.960938 822.667969 159.644531 823.058594 159.484375 C 829.164062 156.65625 835.515625 154.386719 842.03125 152.699219 C 848.390625 151.113281 855.378906 150.320312 863 150.320312 C 875.269531 150.320312 884.785156 153.015625 891.546875 158.417969 C 898.304688 163.816406 901.746094 171.335938 901.863281 180.976562 L 902.027344 235.148438 C 902.027344 236.027344 901.261719 236.734375 900.324219 236.734375 L 878.003906 236.734375 C 877.050781 236.734375 876.292969 236.027344 876.292969 235.148438 Z M 1007.121094 159.210938 C 1013.195312 165.140625 1016.238281 173.085938 1016.238281 183.039062 L 1016.238281 235.15625 C 1016.238281 236.027344 1015.480469 236.742188 1014.535156 236.742188 L 991.691406 236.742188 C 990.753906 236.742188 989.988281 236.027344 989.988281 235.15625 L 989.988281 190.1875 C 989.988281 184.789062 988.371094 180.527344 985.132812 177.402344 C 981.890625 174.277344 977.488281 172.710938 971.925781 172.710938 C 965.441406 172.824219 960.328125 174.910156 956.578125 178.988281 C 952.828125 183.070312 950.953125 188.285156 950.953125 194.640625 L 950.953125 235.15625 C 950.953125 236.027344 950.1875 236.742188 949.246094 236.742188 L 926.40625 236.742188 C 925.464844 236.742188 924.699219 236.027344 924.699219 235.15625 L 924.699219 152.863281 C 924.699219 151.984375 925.464844 151.269531 926.40625 151.269531 L 949.253906 151.269531 C 950.1875 151.269531 950.953125 151.984375 950.953125 152.855469 L 950.953125 161.027344 C 950.953125 162.535156 952.992188 163.183594 953.996094 162 C 960.476562 154.402344 970.03125 150.503906 982.65625 150.320312 C 992.886719 150.320312 1001.042969 153.292969 1007.121094 159.21875 Z M 1098.308594 230.78125 C 1098.519531 231.496094 1098.183594 232.261719 1097.515625 232.589844 C 1094.285156 234.246094 1090.863281 235.507812 1087.332031 236.34375 C 1083.230469 237.34375 1079.027344 237.851562 1074.804688 237.851562 C 1066.285156 237.851562 1059.351562 235.570312 1054.007812 231.019531 C 1048.660156 226.460938 1045.996094 219.953125 1045.996094 211.476562 L 1045.996094 173.511719 C 1045.996094 172.632812 1045.230469 171.917969 1044.292969 171.917969 L 1034.914062 171.917969 C 1033.972656 171.917969 1033.210938 171.210938 1033.210938 170.332031 L 1033.210938 156.667969 C 1033.210938 155.789062 1033.972656 155.082031 1034.914062 155.082031 L 1044.292969 155.082031 C 1045.230469 155.082031 1045.996094 154.371094 1045.996094 153.492188 L 1045.996094 133.160156 C 1045.996094 132.28125 1046.757812 131.566406 1047.703125 131.566406 L 1070.371094 131.566406 C 1071.3125 131.566406 1072.078125 132.28125 1072.078125 133.152344 L 1072.078125 153.492188 C 1072.078125 154.371094 1072.835938 155.082031 1073.78125 155.082031 L 1095.257812 155.082031 C 1096.203125 155.082031 1096.96875 155.789062 1096.96875 156.667969 L 1096.96875 170.492188 C 1096.96875 171.363281 1096.203125 172.078125 1095.257812 172.078125 L 1073.78125 172.078125 C 1072.835938 172.078125 1072.078125 172.789062 1072.078125 173.667969 L 1072.078125 207.34375 C 1072.078125 213.917969 1074.863281 217.191406 1080.429688 217.191406 C 1083.792969 217.191406 1087.457031 216.398438 1091.421875 214.792969 C 1092.378906 214.402344 1093.472656 214.878906 1093.757812 215.800781 Z M 1175.046875 187.015625 C 1176.042969 187.015625 1176.84375 186.210938 1176.746094 185.285156 C 1176.214844 180.460938 1174.335938 176.542969 1171.078125 173.511719 C 1167.445312 170.121094 1162.613281 168.421875 1156.589844 168.421875 C 1150.910156 168.421875 1146.160156 170.09375 1142.355469 173.425781 C 1138.988281 176.378906 1136.710938 180.269531 1135.523438 185.085938 C 1135.277344 186.070312 1136.101562 187.015625 1137.1875 187.015625 Z M 1190.085938 162.382812 C 1197.757812 170.332031 1201.589844 181.398438 1201.589844 195.589844 C 1201.589844 197.308594 1201.5625 198.761719 1201.511719 199.953125 C 1201.476562 200.8125 1200.71875 201.472656 1199.8125 201.472656 L 1137.898438 201.472656 C 1136.722656 201.472656 1135.917969 202.546875 1136.292969 203.585938 C 1137.761719 207.816406 1140.507812 211.488281 1144.148438 214.097656 C 1148.347656 217.117188 1153.40625 218.625 1159.316406 218.625 C 1163.636719 218.625 1167.777344 217.855469 1171.757812 216.324219 C 1175.242188 214.980469 1178.476562 213.050781 1181.316406 210.621094 C 1182.003906 210.046875 1183.011719 210.074219 1183.671875 210.683594 L 1195.164062 221.519531 C 1195.472656 221.804688 1195.648438 222.203125 1195.652344 222.625 C 1195.652344 223.046875 1195.480469 223.449219 1195.175781 223.738281 C 1190.632812 228.128906 1185.25 231.550781 1179.347656 233.800781 C 1172.695312 236.398438 1165.28125 237.691406 1157.105469 237.691406 C 1147.441406 237.691406 1139.003906 235.886719 1131.785156 232.292969 C 1124.574219 228.691406 1119.003906 223.605469 1115.074219 217.042969 C 1111.160156 210.46875 1109.199219 202.90625 1109.199219 194.316406 C 1109.199219 185.632812 1111.1875 177.984375 1115.167969 171.363281 C 1119.144531 164.75 1124.710938 159.609375 1131.875 155.953125 C 1139.027344 152.300781 1147.210938 150.472656 1156.417969 150.472656 C 1171.191406 150.472656 1182.417969 154.441406 1190.085938 162.382812 Z M 1262.75 171.285156 C 1256.160156 171.285156 1250.789062 173.378906 1246.636719 177.558594 C 1242.488281 181.75 1240.414062 187.28125 1240.414062 194.164062 C 1240.414062 201.046875 1242.460938 206.632812 1246.554688 210.917969 C 1250.644531 215.214844 1255.867188 217.355469 1262.234375 217.355469 C 1271.164062 217.355469 1277.953125 214.441406 1282.609375 208.601562 C 1283.179688 207.910156 1284.175781 207.753906 1284.933594 208.230469 L 1300.253906 217.921875 C 1300.617188 218.144531 1300.875 218.503906 1300.960938 218.917969 C 1301.050781 219.335938 1300.960938 219.769531 1300.714844 220.117188 C 1296.925781 225.515625 1291.800781 229.730469 1285.328125 232.769531 C 1278.347656 236.054688 1270.191406 237.691406 1260.875 237.691406 C 1251.667969 237.691406 1243.542969 235.886719 1236.5 232.292969 C 1229.445312 228.6875 1223.96875 223.605469 1220.046875 217.039062 C 1216.125 210.476562 1214.167969 202.898438 1214.167969 194.324219 C 1214.167969 185.640625 1216.125 177.984375 1220.046875 171.363281 C 1223.96875 164.742188 1229.476562 159.601562 1236.585938 155.953125 C 1243.683594 152.300781 1251.890625 150.472656 1261.21875 150.472656 C 1269.960938 150.472656 1277.746094 152.035156 1284.5625 155.164062 C 1290.847656 158.042969 1295.972656 162.019531 1299.949219 167.109375 C 1300.21875 167.445312 1300.332031 167.882812 1300.257812 168.308594 C 1300.183594 168.738281 1299.933594 169.113281 1299.566406 169.339844 L 1284.476562 179.484375 C 1283.765625 179.960938 1282.8125 179.863281 1282.210938 179.25 C 1277.121094 173.941406 1270.632812 171.285156 1262.75 171.285156 Z M 1262.75 171.285156 "/>
</g>
</svg>
